# xmcd
# Copyright (C) 1995-1998 Ti Kan
#
# Track frame offsets:
#       150
#       31767
#       44944
#       71442
#       89657
#       101728
#       113013
#       131752
#       152310
#       165286
#       192404
#
# Disc length: 3379 seconds
#
# Revision: 0
# Processed by: cddbd v1.5.2PL0 Copyright (c) Steve Scherf et al.
# Submitted via: CD-Import v1.0
#
DISCID=8e0d310b
DTITLE=Loops - But The Birds
DYEAR=09
DGENRE=
TTITLE0=No Title
TTITLE1=Swimming Pool
TTITLE2=I Am Heroin
TTITLE3=Salted Eggs
TTITLE4=Lick It Loud
TTITLE5=Lalala
TTITLE6=She Don't Love Me
TTITLE7=Hammer Me Down
TTITLE8=Pretty Pity
TTITLE9=Beneath Your Sheets
TTITLE10=But The Birds
EXTD=
EXTT0=
EXTT1=
EXTT2=
EXTT3=
EXTT4=
EXTT5=
EXTT6=
EXTT7=
EXTT8=
EXTT9=
EXTT10=
PLAYORDER=
